<svg xmlns="http://www.w3.org/2000/svg" xmlns:xlink="http://www.w3.org/1999/xlink" xmlns:s="https://github.com/nturley/netlistsvg" width="452" height="270">
  <style>svg {
    stroke:#000;
    fill:none;
  }
  text {
    fill:#000;
    stroke:none;
    font-size:10px;
    font-weight: bold;
    font-family: "Courier New", monospace;
  }
  .nodelabel {
    text-anchor: middle;
  }
  .inputPortLabel {
    text-anchor: end;
  }
  .splitjoinBody {
    fill:#000;
  }</style>
  <g s:type="add" transform="translate(80.33333333333333,73)" s:width="25" s:height="25" id="cell_$add$./src/blinky.v:27$3">
    <s:alias val="$add"/>
    <circle r="12.5" cx="12.5" cy="12.5" class="cell_$add$./src/blinky.v:27$3"/>
    <line x1="7.5" x2="17.5" y1="12.5" y2="12.5" class="cell_$add$./src/blinky.v:27$3"/>
    <line x1="12.5" x2="12.5" y1="7.5" y2="17.5" class="cell_$add$./src/blinky.v:27$3"/>
    <g s:x="3" s:y="5" s:pid="A"/>
    <g s:x="3" s:y="20" s:pid="B"/>
    <g s:x="25" s:y="12.5" s:pid="Y"/>
  </g>
  <g s:type="ge" transform="translate(291.6666666666667,90.5)" s:width="25" s:height="25" id="cell_$ge$./src/blinky.v:30$4">
    <s:alias val="$ge"/>
    <circle r="12.5" cx="12.5" cy="12.5" class="cell_$ge$./src/blinky.v:30$4"/>
    <line x1="7.5" x2="17.5" y1="7.5" y2="12.5" class="cell_$ge$./src/blinky.v:30$4"/>
    <line x1="7.5" x2="17.5" y1="17.5" y2="12.5" class="cell_$ge$./src/blinky.v:30$4"/>
    <line x1="7.5" x2="17.5" y1="20" y2="15" class="cell_$ge$./src/blinky.v:30$4"/>
    <g s:x="3" s:y="5" s:pid="A"/>
    <g s:x="3" s:y="20" s:pid="B"/>
    <g s:x="25" s:y="12.5" s:pid="Y"/>
  </g>
  <g s:type="dff" transform="translate(211.5,85.5)" s:width="30" s:height="40" id="cell_$procdff$9">
    <s:alias val="$dff"/>
    <s:alias val="$_DFF_"/>
    <s:alias val="$_DFF_P_"/>
    <rect width="30" height="40" x="0" y="0" class="cell_$procdff$9"/>
    <path d="M0,35 L5,30 L0,25" class="cell_$procdff$9"/>
    <g s:x="30" s:y="10" s:pid="Q"/>
    <g s:x="0" s:y="30" s:pid="CLK"/>
    <g s:x="0" s:y="30" s:pid="C"/>
    <g s:x="0" s:y="10" s:pid="D"/>
  </g>
  <g s:type="mux" transform="translate(145.33333333333334,75.5)" s:width="20" s:height="40" id="cell_$procmux$7">
    <s:alias val="$pmux"/>
    <s:alias val="$mux"/>
    <s:alias val="$_MUX_"/>
    <path d="M0,0 L20,10 L20,30 L0,40 Z" class="cell_$procmux$7"/>
    <g s:x="0" s:y="10" s:pid="A"/>
    <g s:x="0" s:y="30" s:pid="B"/>
    <g s:x="10" s:y="35" s:pid="S"/>
    <g s:x="20" s:y="20" s:pid="Y"/>
  </g>
  <g s:type="mux" transform="translate(355,22)" s:width="20" s:height="40" id="cell_$ternary$./src/blinky.v:30$5">
    <s:alias val="$pmux"/>
    <s:alias val="$mux"/>
    <s:alias val="$_MUX_"/>
    <path d="M0,0 L20,10 L20,30 L0,40 Z" class="cell_$ternary$./src/blinky.v:30$5"/>
    <g s:x="0" s:y="10" s:pid="A"/>
    <g s:x="0" s:y="30" s:pid="B"/>
    <g s:x="10" s:y="35" s:pid="S"/>
    <g s:x="20" s:y="20" s:pid="Y"/>
  </g>
  <g s:type="inputExt" transform="translate(142,238)" s:width="30" s:height="20" id="cell_piClk">
    <text x="15" y="-4" class="nodelabel cell_piClk" s:attribute="ref">piClk</text>
    <s:alias val="$_inputExt_"/>
    <path d="M0,0 L0,20 L15,20 L30,10 L15,0 Z" class="cell_piClk"/>
    <g s:x="28" s:y="10" s:pid="Y"/>
  </g>
  <g s:type="inputExt" transform="translate(77,208)" s:width="30" s:height="20" id="cell_piRst">
    <text x="15" y="-4" class="nodelabel cell_piRst" s:attribute="ref">piRst</text>
    <s:alias val="$_inputExt_"/>
    <path d="M0,0 L0,20 L15,20 L30,10 L15,0 Z" class="cell_piRst"/>
    <g s:x="28" s:y="10" s:pid="Y"/>
  </g>
  <g s:type="outputExt" transform="translate(410,32)" s:width="30" s:height="20" id="cell_poLed">
    <text x="15" y="-4" class="nodelabel cell_poLed" s:attribute="ref">poLed</text>
    <s:alias val="$_outputExt_"/>
    <path d="M30,0 L30,20 L15,20 L0,10 L15,0 Z" class="cell_poLed"/>
    <g s:x="0" s:y="10" s:pid="A"/>
  </g>
  <g s:type="constant" transform="translate(12,42)" s:width="30" s:height="20" id="cell_1">
    <text x="15" y="-4" class="nodelabel cell_1" s:attribute="ref">1</text>
    <s:alias val="$_constant_"/>
    <rect width="30" height="20" class="cell_1"/>
    <g s:x="30" s:y="10" s:pid="Y"/>
  </g>
  <g s:type="constant" transform="translate(207,170.5)" s:width="30" s:height="20" id="cell_111111111111111111111111">
    <text x="15" y="-4" class="nodelabel cell_111111111111111111111111" s:attribute="ref">0xffffff</text>
    <s:alias val="$_constant_"/>
    <rect width="30" height="20" class="cell_111111111111111111111111"/>
    <g s:x="30" s:y="10" s:pid="Y"/>
  </g>
  <g s:type="constant" transform="translate(77,143)" s:width="30" s:height="20" id="cell_00000000000000000000000000">
    <text x="15" y="-4" class="nodelabel cell_00000000000000000000000000" s:attribute="ref">0x0</text>
    <s:alias val="$_constant_"/>
    <rect width="30" height="20" class="cell_00000000000000000000000000"/>
    <g s:x="30" s:y="10" s:pid="Y"/>
  </g>
  <g s:type="constant" transform="translate(290,22)" s:width="30" s:height="20" id="cell_0">
    <text x="15" y="-4" class="nodelabel cell_0" s:attribute="ref">0</text>
    <s:alias val="$_constant_"/>
    <rect width="30" height="20" class="cell_0"/>
    <g s:x="30" s:y="10" s:pid="Y"/>
  </g>
  <line x1="241.5" x2="265" y1="95.5" y2="95.5" class="net_5,6,7,8,9,10,11,12,13,14,15,16,17,18,19,20,21,22,23,24,25,26,27,28,29,30"/>
  <line x1="265" x2="265" y1="95.5" y2="63" class="net_5,6,7,8,9,10,11,12,13,14,15,16,17,18,19,20,21,22,23,24,25,26,27,28,29,30"/>
  <line x1="265" x2="62" y1="63" y2="63" class="net_5,6,7,8,9,10,11,12,13,14,15,16,17,18,19,20,21,22,23,24,25,26,27,28,29,30"/>
  <line x1="62" x2="62" y1="63" y2="78" class="net_5,6,7,8,9,10,11,12,13,14,15,16,17,18,19,20,21,22,23,24,25,26,27,28,29,30"/>
  <circle cx="265" cy="95.5" r="2" style="fill:#000" class="net_5,6,7,8,9,10,11,12,13,14,15,16,17,18,19,20,21,22,23,24,25,26,27,28,29,30"/>
  <line x1="62" x2="83.33333333333333" y1="78" y2="78" class="net_5,6,7,8,9,10,11,12,13,14,15,16,17,18,19,20,21,22,23,24,25,26,27,28,29,30"/>
  <line x1="241.5" x2="294.6666666666667" y1="95.5" y2="95.5" class="net_5,6,7,8,9,10,11,12,13,14,15,16,17,18,19,20,21,22,23,24,25,26,27,28,29,30"/>
  <line x1="42" x2="52" y1="52" y2="52" class="net_84"/>
  <line x1="52" x2="52" y1="52" y2="93" class="net_84"/>
  <circle cx="52" cy="52" r="2" style="fill:#000" class="net_84"/>
  <line x1="52" x2="83.33333333333333" y1="93" y2="93" class="net_84"/>
  <line x1="42" x2="355" y1="52" y2="52" class="net_84"/>
  <line x1="237" x2="265" y1="180.5" y2="180.5" class="net_85,86,87,88,89,90,91,92,93,94,95,96,97,98,99,100,101,102,103,104,105,106,107,108"/>
  <line x1="265" x2="265" y1="180.5" y2="110.5" class="net_85,86,87,88,89,90,91,92,93,94,95,96,97,98,99,100,101,102,103,104,105,106,107,108"/>
  <line x1="265" x2="294.6666666666667" y1="110.5" y2="110.5" class="net_85,86,87,88,89,90,91,92,93,94,95,96,97,98,99,100,101,102,103,104,105,106,107,108"/>
  <line x1="170" x2="182" y1="248" y2="248" class="net_2"/>
  <line x1="182" x2="182" y1="248" y2="115.5" class="net_2"/>
  <line x1="182" x2="211.5" y1="115.5" y2="115.5" class="net_2"/>
  <line x1="165.33333333333334" x2="211.5" y1="95.5" y2="95.5" class="net_58,59,60,61,62,63,64,65,66,67,68,69,70,71,72,73,74,75,76,77,78,79,80,81,82,83"/>
  <line x1="105.33333333333333" x2="145.33333333333334" y1="85.5" y2="85.5" class="net_31,32,33,34,35,36,37,38,39,40,41,42,43,44,45,46,47,48,49,50,51,52,53,54,55,56"/>
  <line x1="107" x2="117" y1="153" y2="153" class="net_109,110,111,112,113,114,115,116,117,118,119,120,121,122,123,124,125,126,127,128,129,130,131,132,133,134"/>
  <line x1="117" x2="117" y1="153" y2="105.5" class="net_109,110,111,112,113,114,115,116,117,118,119,120,121,122,123,124,125,126,127,128,129,130,131,132,133,134"/>
  <line x1="117" x2="145.33333333333334" y1="105.5" y2="105.5" class="net_109,110,111,112,113,114,115,116,117,118,119,120,121,122,123,124,125,126,127,128,129,130,131,132,133,134"/>
  <line x1="105" x2="155.33333333333334" y1="218" y2="218" class="net_3"/>
  <line x1="155.33333333333334" x2="155.33333333333334" y1="218" y2="110.5" class="net_3"/>
  <line x1="320" x2="355" y1="32" y2="32" class="net_135"/>
  <line x1="316.6666666666667" x2="365" y1="103" y2="103" class="net_57"/>
  <line x1="365" x2="365" y1="103" y2="57" class="net_57"/>
  <line x1="375" x2="410" y1="42" y2="42" class="net_4"/>
</svg>
