<?xml version="1.0" encoding="UTF-8" standalone="no"?>
<!DOCTYPE svg PUBLIC "-//W3C//DTD SVG 1.1//EN"
 "http://www.w3.org/Graphics/SVG/1.1/DTD/svg11.dtd">
<!-- Generated by graphviz version 2.38.0 (20140413.2041)
 -->
<!-- Title: blinky Pages: 1 -->
<svg width="1442pt" height="285pt"
 viewBox="0.00 0.00 1442.30 284.50" xmlns="http://www.w3.org/2000/svg" xmlns:xlink="http://www.w3.org/1999/xlink">
<g id="graph0" class="graph" transform="scale(1 1) rotate(0) translate(4 280.5)">
<title>blinky</title>
<polygon fill="white" stroke="none" points="-4,4 -4,-280.5 1438.3,-280.5 1438.3,4 -4,4"/>
<text text-anchor="middle" x="717.15" y="-7.8" font-family="Times,serif" font-size="14.00">blinky</text>
<!-- n6 -->
<g id="node1" class="node"><title>n6</title>
<polygon fill="none" stroke="black" points="227.791,-80.5 112.163,-62.5 227.791,-44.5 343.419,-62.5 227.791,-80.5"/>
<text text-anchor="middle" x="227.791" y="-58.8" font-family="Times,serif" font-size="14.00">s_counter_next</text>
</g>
<!-- p5 -->
<g id="node15" class="node"><title>p5</title>
<path fill="none" stroke="black" d="M546.605,-185.5C546.605,-185.5 391.605,-185.5 391.605,-185.5 385.605,-185.5 379.605,-179.5 379.605,-173.5 379.605,-173.5 379.605,-159.5 379.605,-159.5 379.605,-153.5 385.605,-147.5 391.605,-147.5 391.605,-147.5 546.605,-147.5 546.605,-147.5 552.605,-147.5 558.605,-153.5 558.605,-159.5 558.605,-159.5 558.605,-173.5 558.605,-173.5 558.605,-179.5 552.605,-185.5 546.605,-185.5"/>
<text text-anchor="middle" x="469.105" y="-170.3" font-family="Times,serif" font-size="14.00">PROC $1</text>
<text text-anchor="middle" x="469.105" y="-155.3" font-family="Times,serif" font-size="14.00">./src/blinky.v:16.5&#45;24.8</text>
</g>
<!-- n6&#45;&gt;p5 -->
<g id="edge7" class="edge"><title>n6:e&#45;&gt;p5:w</title>
<path fill="none" stroke="black" stroke-width="3" d="M343.605,-62.5C388.506,-62.5 340.09,-150.137 369.681,-164.515"/>
<polygon fill="black" stroke="black" stroke-width="3" points="369.113,-167.971 379.605,-166.5 370.485,-161.107 369.113,-167.971"/>
</g>
<!-- n7 -->
<g id="node2" class="node"><title>n7</title>
<polygon fill="none" stroke="black" points="765.54,-184.5 656.28,-166.5 765.54,-148.5 874.799,-166.5 765.54,-184.5"/>
<text text-anchor="middle" x="765.54" y="-162.8" font-family="Times,serif" font-size="14.00">s_counter_reg</text>
</g>
<!-- c16 -->
<g id="node10" class="node"><title>c16</title>
<polygon fill="none" stroke="black" points="976.974,-121.5 976.974,-167.5 1072.97,-167.5 1072.97,-121.5 976.974,-121.5"/>
<text text-anchor="middle" x="990.474" y="-152.3" font-family="Times,serif" font-size="14.00">A</text>
<polyline fill="none" stroke="black" points="976.974,-144.5 1003.97,-144.5 "/>
<text text-anchor="middle" x="990.474" y="-129.3" font-family="Times,serif" font-size="14.00">B</text>
<polyline fill="none" stroke="black" points="1003.97,-121.5 1003.97,-167.5 "/>
<text text-anchor="middle" x="1025.47" y="-148.3" font-family="Times,serif" font-size="14.00">$4</text>
<text text-anchor="middle" x="1025.47" y="-133.3" font-family="Times,serif" font-size="14.00">$ge</text>
<polyline fill="none" stroke="black" points="1046.97,-121.5 1046.97,-167.5 "/>
<text text-anchor="middle" x="1059.97" y="-140.8" font-family="Times,serif" font-size="14.00">Y</text>
</g>
<!-- n7&#45;&gt;c16 -->
<g id="edge9" class="edge"><title>n7:e&#45;&gt;c16:p11:w</title>
<path fill="none" stroke="black" stroke-width="3" d="M875.54,-166.5C916.718,-166.5 929.128,-158.073 965.587,-156.691"/>
<polygon fill="black" stroke="black" stroke-width="3" points="966.04,-160.183 975.974,-156.5 965.912,-153.184 966.04,-160.183"/>
</g>
<!-- c17 -->
<g id="node12" class="node"><title>c17</title>
<polygon fill="none" stroke="black" points="972.474,-47.5 972.474,-93.5 1077.47,-93.5 1077.47,-47.5 972.474,-47.5"/>
<text text-anchor="middle" x="985.974" y="-78.3" font-family="Times,serif" font-size="14.00">A</text>
<polyline fill="none" stroke="black" points="972.474,-70.5 999.474,-70.5 "/>
<text text-anchor="middle" x="985.974" y="-55.3" font-family="Times,serif" font-size="14.00">B</text>
<polyline fill="none" stroke="black" points="999.474,-47.5 999.474,-93.5 "/>
<text text-anchor="middle" x="1025.47" y="-74.3" font-family="Times,serif" font-size="14.00">$3</text>
<text text-anchor="middle" x="1025.47" y="-59.3" font-family="Times,serif" font-size="14.00">$add</text>
<polyline fill="none" stroke="black" points="1051.47,-47.5 1051.47,-93.5 "/>
<text text-anchor="middle" x="1064.47" y="-66.8" font-family="Times,serif" font-size="14.00">Y</text>
</g>
<!-- n7&#45;&gt;c17 -->
<g id="edge10" class="edge"><title>n7:e&#45;&gt;c17:p11:w</title>
<path fill="none" stroke="black" stroke-width="3" d="M875.54,-166.5C905.161,-166.5 914.055,-158.86 936.474,-139.5 955.963,-122.671 946.414,-92.6709 962.36,-84.5662"/>
<polygon fill="black" stroke="black" stroke-width="3" points="963.377,-87.9307 972.474,-82.5 961.976,-81.0723 963.377,-87.9307"/>
</g>
<!-- n7&#45;&gt;p5 -->
<g id="edge11" class="edge"><title>n7:e&#45;&gt;p5:w</title>
<path fill="none" stroke="black" stroke-width="3" d="M875.54,-166.5C883.552,-166.5 880.352,-178.985 874.54,-184.5 772.687,-281.157 699.021,-185.278 558.605,-185.5 478.827,-185.626 436.98,-240.409 379.105,-185.5 376.421,-182.954 374.276,-178.999 373.419,-175.355"/>
<polygon fill="black" stroke="black" stroke-width="3" points="376.521,-176.976 378.105,-166.5 370.334,-173.702 376.521,-176.976"/>
</g>
<!-- n8 -->
<g id="node3" class="node"><title>n8</title>
<polygon fill="none" stroke="black" points="1434.21,-197.044 1434.21,-211.956 1409.13,-222.5 1373.65,-222.5 1348.56,-211.956 1348.56,-197.044 1373.65,-186.5 1409.13,-186.5 1434.21,-197.044"/>
<text text-anchor="middle" x="1391.39" y="-200.8" font-family="Times,serif" font-size="14.00">poLed</text>
</g>
<!-- n9 -->
<g id="node4" class="node"><title>n9</title>
<polygon fill="none" stroke="black" points="75.9658,-221.044 75.9658,-235.956 53.7193,-246.5 22.2579,-246.5 0.0114011,-235.956 0.0114011,-221.044 22.2579,-210.5 53.7193,-210.5 75.9658,-221.044"/>
<text text-anchor="middle" x="37.9886" y="-224.8" font-family="Times,serif" font-size="14.00">piRst</text>
</g>
<!-- c18 -->
<g id="node14" class="node"><title>c18</title>
<polygon fill="none" stroke="black" points="179.791,-178.5 179.791,-224.5 275.791,-224.5 275.791,-178.5 179.791,-178.5"/>
<text text-anchor="middle" x="193.291" y="-209.3" font-family="Times,serif" font-size="14.00">A</text>
<polyline fill="none" stroke="black" points="179.791,-201.5 206.791,-201.5 "/>
<text text-anchor="middle" x="193.291" y="-186.3" font-family="Times,serif" font-size="14.00">B</text>
<polyline fill="none" stroke="black" points="206.791,-178.5 206.791,-224.5 "/>
<text text-anchor="middle" x="228.291" y="-205.3" font-family="Times,serif" font-size="14.00">$2</text>
<text text-anchor="middle" x="228.291" y="-190.3" font-family="Times,serif" font-size="14.00">$eq</text>
<polyline fill="none" stroke="black" points="249.791,-178.5 249.791,-224.5 "/>
<text text-anchor="middle" x="262.791" y="-197.8" font-family="Times,serif" font-size="14.00">Y</text>
</g>
<!-- n9&#45;&gt;c18 -->
<g id="edge13" class="edge"><title>n9:e&#45;&gt;c18:p11:w</title>
<path fill="none" stroke="black" d="M75.9772,-228.5C118.548,-228.5 130.76,-215.752 168.588,-213.76"/>
<polygon fill="black" stroke="black" points="168.884,-217.254 178.791,-213.5 168.705,-210.256 168.884,-217.254"/>
</g>
<!-- n10 -->
<g id="node5" class="node"><title>n10</title>
<polygon fill="none" stroke="black" points="266.676,-134.044 266.676,-148.956 243.898,-159.5 211.684,-159.5 188.906,-148.956 188.906,-134.044 211.684,-123.5 243.898,-123.5 266.676,-134.044"/>
<text text-anchor="middle" x="227.791" y="-137.8" font-family="Times,serif" font-size="14.00">piClk</text>
</g>
<!-- n10&#45;&gt;p5 -->
<g id="edge2" class="edge"><title>n10:e&#45;&gt;p5:w</title>
<path fill="none" stroke="black" d="M267.791,-141.5C315.133,-141.5 327.078,-163.108 369.442,-166.147"/>
<polygon fill="black" stroke="black" points="369.489,-169.65 379.605,-166.5 369.733,-162.654 369.489,-169.65"/>
</g>
<!-- v0 -->
<g id="node6" class="node"><title>v0</title>
<ellipse fill="none" stroke="black" cx="1024.97" cy="-204.5" rx="27" ry="18"/>
<text text-anchor="middle" x="1024.97" y="-200.8" font-family="Times,serif" font-size="14.00">1&#39;1</text>
</g>
<!-- c15 -->
<g id="node8" class="node"><title>c15</title>
<polygon fill="none" stroke="black" points="1113.47,-170 1113.47,-239 1222.47,-239 1222.47,-170 1113.47,-170"/>
<text text-anchor="middle" x="1126.97" y="-223.8" font-family="Times,serif" font-size="14.00">A</text>
<polyline fill="none" stroke="black" points="1113.47,-216 1140.47,-216 "/>
<text text-anchor="middle" x="1126.97" y="-200.8" font-family="Times,serif" font-size="14.00">B</text>
<polyline fill="none" stroke="black" points="1113.47,-193 1140.47,-193 "/>
<text text-anchor="middle" x="1126.97" y="-177.8" font-family="Times,serif" font-size="14.00">S</text>
<polyline fill="none" stroke="black" points="1140.47,-170 1140.47,-239 "/>
<text text-anchor="middle" x="1168.47" y="-208.3" font-family="Times,serif" font-size="14.00">$5</text>
<text text-anchor="middle" x="1168.47" y="-193.3" font-family="Times,serif" font-size="14.00">$mux</text>
<polyline fill="none" stroke="black" points="1196.47,-170 1196.47,-239 "/>
<text text-anchor="middle" x="1209.47" y="-200.8" font-family="Times,serif" font-size="14.00">Y</text>
</g>
<!-- v0&#45;&gt;c15 -->
<g id="edge14" class="edge"><title>v0:e&#45;&gt;c15:p12:w</title>
<path fill="none" stroke="black" d="M1052.97,-204.5C1076.19,-204.5 1084.37,-204.5 1103.47,-204.5"/>
<polygon fill="black" stroke="black" points="1103.47,-208 1113.47,-204.5 1103.47,-201 1103.47,-208"/>
</g>
<!-- v1 -->
<g id="node7" class="node"><title>v1</title>
<ellipse fill="none" stroke="black" cx="1024.97" cy="-258.5" rx="27" ry="18"/>
<text text-anchor="middle" x="1024.97" y="-254.8" font-family="Times,serif" font-size="14.00">1&#39;0</text>
</g>
<!-- v1&#45;&gt;c15 -->
<g id="edge15" class="edge"><title>v1:e&#45;&gt;c15:p11:w</title>
<path fill="none" stroke="black" d="M1052.97,-258.5C1079.41,-258.5 1082.77,-234.766 1103.44,-228.832"/>
<polygon fill="black" stroke="black" points="1104.02,-232.286 1113.47,-227.5 1103.1,-225.346 1104.02,-232.286"/>
</g>
<!-- x7 -->
<g id="node17" class="node"><title>x7</title>
<path fill="none" stroke="black" d="M1300.47,-222.5C1300.47,-222.5 1270.47,-222.5 1270.47,-222.5 1264.47,-222.5 1258.47,-216.5 1258.47,-210.5 1258.47,-210.5 1258.47,-198.5 1258.47,-198.5 1258.47,-192.5 1264.47,-186.5 1270.47,-186.5 1270.47,-186.5 1300.47,-186.5 1300.47,-186.5 1306.47,-186.5 1312.47,-192.5 1312.47,-198.5 1312.47,-198.5 1312.47,-210.5 1312.47,-210.5 1312.47,-216.5 1306.47,-222.5 1300.47,-222.5"/>
<text text-anchor="middle" x="1285.47" y="-200.8" font-family="Times,serif" font-size="14.00">BUF</text>
</g>
<!-- c15&#45;&gt;x7 -->
<g id="edge1" class="edge"><title>c15:p14:e&#45;&gt;x7:w:w</title>
<path fill="none" stroke="black" d="M1222.47,-204.5C1234.47,-204.5 1239.72,-204.5 1248.35,-204.5"/>
<polygon fill="black" stroke="black" points="1248.47,-208 1258.47,-204.5 1248.47,-201 1248.47,-208"/>
</g>
<!-- v2 -->
<g id="node9" class="node"><title>v2</title>
<ellipse fill="none" stroke="black" cx="765.54" cy="-112.5" rx="170.87" ry="18"/>
<text text-anchor="middle" x="765.54" y="-108.8" font-family="Times,serif" font-size="14.00">25&#39;0111111111111111111111111</text>
</g>
<!-- v2&#45;&gt;c16 -->
<g id="edge16" class="edge"><title>v2:e&#45;&gt;c16:p12:w</title>
<path fill="none" stroke="black" stroke-width="3" d="M936.474,-112.5C952.155,-112.5 955.432,-125.2 966.074,-130.36"/>
<polygon fill="black" stroke="black" stroke-width="3" points="965.461,-133.808 975.974,-132.5 966.94,-126.966 965.461,-133.808"/>
</g>
<!-- c16&#45;&gt;c15 -->
<g id="edge3" class="edge"><title>c16:p14:e&#45;&gt;c15:p13:w</title>
<path fill="none" stroke="black" d="M1073.97,-144.5C1093.89,-144.5 1091.41,-169.874 1103.63,-178.597"/>
<polygon fill="black" stroke="black" points="1102.89,-182.027 1113.47,-181.5 1104.87,-175.313 1102.89,-182.027"/>
</g>
<!-- v3 -->
<g id="node11" class="node"><title>v3</title>
<ellipse fill="none" stroke="black" cx="765.54" cy="-58.5" rx="27" ry="18"/>
<text text-anchor="middle" x="765.54" y="-54.8" font-family="Times,serif" font-size="14.00">1</text>
</g>
<!-- v3&#45;&gt;c17 -->
<g id="edge17" class="edge"><title>v3:e&#45;&gt;c17:p12:w</title>
<path fill="none" stroke="black" stroke-width="3" d="M793.54,-58.5C869.494,-58.5 891.041,-58.5 962.107,-58.5"/>
<polygon fill="black" stroke="black" stroke-width="3" points="962.475,-62.0001 972.474,-58.5 962.474,-55.0001 962.475,-62.0001"/>
</g>
<!-- x6 -->
<g id="node16" class="node"><title>x6</title>
<path fill="none" stroke="black" d="M1133.47,-23.5C1133.47,-23.5 1202.47,-23.5 1202.47,-23.5 1208.47,-23.5 1214.47,-29.5 1214.47,-35.5 1214.47,-35.5 1214.47,-47.5 1214.47,-47.5 1214.47,-53.5 1208.47,-59.5 1202.47,-59.5 1202.47,-59.5 1133.47,-59.5 1133.47,-59.5 1127.47,-59.5 1121.47,-53.5 1121.47,-47.5 1121.47,-47.5 1121.47,-35.5 1121.47,-35.5 1121.47,-29.5 1127.47,-23.5 1133.47,-23.5"/>
<text text-anchor="middle" x="1167.97" y="-37.8" font-family="Times,serif" font-size="14.00">25:0 &#45; 25:0</text>
</g>
<!-- c17&#45;&gt;x6 -->
<g id="edge4" class="edge"><title>c17:p14:e&#45;&gt;x6:s0:w</title>
<path fill="none" stroke="black" stroke-width="3" d="M1077.47,-70.5C1096.41,-70.5 1097.45,-50.6121 1110.23,-43.7756"/>
<polygon fill="black" stroke="black" stroke-width="3" points="1111.03,-47.1828 1119.97,-41.5 1109.44,-40.3663 1111.03,-47.1828"/>
</g>
<!-- v4 -->
<g id="node13" class="node"><title>v4</title>
<ellipse fill="none" stroke="black" cx="37.9886" cy="-174.5" rx="27" ry="18"/>
<text text-anchor="middle" x="37.9886" y="-170.8" font-family="Times,serif" font-size="14.00">1&#39;1</text>
</g>
<!-- v4&#45;&gt;c18 -->
<g id="edge18" class="edge"><title>v4:e&#45;&gt;c18:p12:w</title>
<path fill="none" stroke="black" d="M65.9886,-174.5C113.008,-174.5 126.384,-187.465 168.673,-189.288"/>
<polygon fill="black" stroke="black" points="168.72,-192.79 178.791,-189.5 168.867,-185.791 168.72,-192.79"/>
</g>
<!-- c18&#45;&gt;p5 -->
<g id="edge5" class="edge"><title>c18:p14:e&#45;&gt;p5:w</title>
<path fill="none" stroke="black" d="M276.791,-201.5C321.479,-201.5 330.172,-171.503 369.517,-167.05"/>
<polygon fill="black" stroke="black" points="369.81,-170.539 379.605,-166.5 369.429,-163.549 369.81,-170.539"/>
</g>
<!-- p5&#45;&gt;n7 -->
<g id="edge8" class="edge"><title>p5:e&#45;&gt;n7:w</title>
<path fill="none" stroke="black" stroke-width="3" d="M558.605,-166.5C597.985,-166.5 610.368,-166.5 645.107,-166.5"/>
<polygon fill="black" stroke="black" stroke-width="3" points="645.54,-170 655.54,-166.5 645.54,-163 645.54,-170"/>
</g>
<!-- x6&#45;&gt;n6 -->
<g id="edge6" class="edge"><title>x6:e&#45;&gt;n6:w</title>
<path fill="none" stroke="black" stroke-width="3" d="M1215.97,-41.5C1224.21,-41.5 1220.95,-54.3368 1214.97,-60 1184.81,-88.5802 1161.87,-69.7304 1121.47,-60 1100.12,-54.857 1098.71,-43.0958 1077.47,-37.5 1016.82,-21.5198 999.184,-32.8336 936.474,-31.5 784.567,-28.2694 745.841,-16.8759 594.605,-31.5 481.471,-42.4397 456.739,-69.5603 343.605,-80.5 241.055,-90.4163 186.636,-151.303 111.791,-80.5 109.426,-78.2631 107.496,-74.873 106.574,-71.6358"/>
<polygon fill="black" stroke="black" stroke-width="3" points="109.777,-73.0463 110.791,-62.5 103.422,-70.1124 109.777,-73.0463"/>
</g>
<!-- x7&#45;&gt;n8 -->
<g id="edge12" class="edge"><title>x7:e:e&#45;&gt;n8:w</title>
<path fill="none" stroke="black" d="M1312.47,-204.5C1324.47,-204.5 1329.72,-204.5 1338.35,-204.5"/>
<polygon fill="black" stroke="black" points="1338.47,-208 1348.47,-204.5 1338.47,-201 1338.47,-208"/>
</g>
</g>
</svg>
